# xmcd
#
# Track frame offsets:
#	150
#	13184
#	26551
#	37246
#	48618
#	61260
#	64154
#	69478
#	75146
#	77599
#	82024
#	85476
#	90971
#	102419
#	113768
#	125272
#	134699
#	150477
#	161232
#	173814
#	185305
#	197114
#	202774
#
# Disc length: 2913 seconds
#
# Revision: 1
# Processed by: cddbd v1.5.2PL0 Copyright (c) Steve Scherf et al.
# Submitted via: audiograbber 1.83.01
#
DISCID=2e0b5f17
DTITLE=Charley Pride - Pride Of Country
DYEAR=2009
DGENRE=Country
TTITLE0=Kaw-Liga
TTITLE1=(I'm So) Afraid Of Losing You Again
TTITLE2=Oklahoma Morning
TTITLE3=It's Gonna Take A Little Bit Longer
TTITLE4=Crystal Chandeliers
TTITLE5=Does My Ring Hurt Your Finger
TTITLE6=Too Good To Be True
TTITLE7=I'd Rather Love You
TTITLE8=All I Have To Offer You (Is Me)
TTITLE9=I Wonder Could I Live There Anymore
TTITLE10=Is Anybody Goin' To San Antone
TTITLE11=I'm Just Me
TTITLE12=Shutters And Boards
TTITLE13=Happiness Of Having You
TTITLE14=My Eyes Can Only See As Far As You
TTITLE15=Kiss An Angel Good Mornin'
TTITLE16=Let Me Live In The Light Of His Love
TTITLE17=Mississippi Cotton Picking Delta Town
TTITLE18=Help Me Make It Through The Night
TTITLE19=Louisiiana Man
TTITLE20=There Goes My Everything
TTITLE21=Lovesick Blues
TTITLE22=E And Bobby Mcgee
EXTD=
EXTT0=
EXTT1=
EXTT2=
EXTT3=
EXTT4=
EXTT5=
EXTT6=
EXTT7=
EXTT8=
EXTT9=
EXTT10=
EXTT11=
EXTT12=
EXTT13=
EXTT14=
EXTT15=
EXTT16=
EXTT17=
EXTT18=
EXTT19=
EXTT20=
EXTT21=
EXTT22=
PLAYORDER=
